<svg width="197" height="35" viewBox="0 0 197 35" fill="none" xmlns="http://www.w3.org/2000/svg">
<g id="Group 51">
<path id="Vector 41" d="M31.7949 33.6747V2.28857V0H50.9208V7.27439L39.0693 7.7648V28.1167H46.5072V21.4145H41.3579V16.8373H52.4738V33.6747H31.7949Z" fill="black"/>
<path id="Vector 42" d="M61.5464 33.7563V7.68293H68.8208V22.9673H74.7874V5.88477H80.4271V33.7563H61.5464Z" fill="black"/>
<path id="Vector 43" d="M8.33694 10.3803H16.4287L15.9383 1.55298H0V14.9575L6.78398 21.7414V26.4003L0 28.0657V33.4295H17.0008V20.7606L8.33694 14.9575V10.3803Z" fill="black"/>
<path id="Vector 44" d="M21.0063 33.4295V29.3428H26.2374L27.9538 33.4295H21.0063Z" fill="black"/>
<path id="Vector 45" d="M89.0908 33.593V6.70227V6.13013H106.092V12.8324L102.414 14.8757V18.7173L107.972 22.3953V33.593H89.0908Z" fill="black"/>
<path id="Vector 46" d="M116.227 33.2661V6.21191H133.391V12.0968L125.217 12.5872V18.8808H130.612V22.8858H124.237V27.0543H133.391V33.2661H116.227Z" fill="black" stroke="black"/>
<path id="Vector 47" d="M149.084 33.6747H142.137V5.31274H167.066L165.431 18.2268L158.729 22.3953L165.431 33.6747H158.729L154.07 28.1167H149.084V33.6747Z" fill="black" stroke="black"/>
<path id="Vector 48" d="M184.23 12.914L183.167 33.7564H190.932V12.914H196V5.23096H175.729V12.914H184.23Z" fill="black" stroke="black"/>
</g>
</svg>
