<svg width="18" height="18" viewBox="0 0 18 18" fill="none" xmlns="http://www.w3.org/2000/svg">
<path id="Vector" d="M14.6248 3.34654H11.9024V3.00463C11.9024 2.14421 11.5349 1.32512 10.8899 0.754006C10.2487 0.182897 9.38624 -0.0801142 8.52752 0.0213328C7.03132 0.20544 5.90262 1.52801 5.90262 3.10607V3.3503H3.37521C3.19897 3.3503 3.04522 3.47429 3.00772 3.64713L0.00783489 17.5491C-0.0146643 17.6581 0.0115847 17.7746 0.082832 17.8647C0.154079 17.9549 0.262825 18 0.375321 18H17.6247C17.7372 18 17.8459 17.9474 17.9172 17.861C17.9884 17.7746 18.0147 17.6581 17.9922 17.5454L14.9923 3.64337C14.9548 3.46677 14.801 3.34654 14.6248 3.34654ZM6.65259 3.10232C6.65259 1.9075 7.49631 0.90054 8.61751 0.765278C9.27374 0.686374 9.90372 0.881754 10.3912 1.31384C10.8749 1.74217 11.1487 2.35837 11.1487 3.00087V3.34278H6.64884V3.10232H6.65259ZM0.840304 17.2485L3.67895 4.098H5.90262V5.60092H6.65259V4.098H11.1524V5.60092H11.9024V4.098H14.3211L17.1597 17.2485H0.840304Z" fill="white"/>
</svg>
