<svg width="26" height="39" viewBox="0 0 26 39" fill="none" xmlns="http://www.w3.org/2000/svg">
    <g id="downloadWhite">
        <path id="Vector" d="M12.9503 7.19333C12.7569 7.19333 12.5987 7.38833 12.5987 7.62667V18.46L8.6818 14.235C8.53412 14.079 8.31261 14.0963 8.18604 14.274C8.05946 14.456 8.07352 14.729 8.21768 14.885L12.7182 19.7383C12.778 19.8033 12.8589 19.8467 12.9433 19.8467C12.9433 19.8467 12.9433 19.8467 12.9468 19.8467H12.9503C13.0382 19.8467 13.1155 19.8033 13.1753 19.7383L17.6759 14.885C17.8235 14.729 17.8376 14.4517 17.7075 14.274C17.5809 14.092 17.3559 14.0747 17.2117 14.235L13.2949 18.46V7.62667C13.2949 7.38833 13.1366 7.19333 12.9433 7.19333H12.9503Z" fill="white"/>
        <path id="Vector_2" d="M7.53516 23.5733C7.53516 23.8117 7.69338 24.0067 7.88676 24.0067H18.013C18.2064 24.0067 18.3646 23.8117 18.3646 23.5733C18.3646 23.335 18.2064 23.14 18.013 23.14H7.88676C7.69338 23.14 7.53516 23.335 7.53516 23.5733Z" fill="white"/>
    </g>
</svg>
