<svg width="16" height="16" viewBox="0 0 16 16" fill="none" xmlns="http://www.w3.org/2000/svg">
<path id="Vector" fill-rule="evenodd" clip-rule="evenodd" d="M8 0C12.4153 0 16 3.58469 16 8C16 12.4153 12.4153 16 8 16C3.58469 16 0 12.4153 0 8C0 3.58469 3.58469 0 8 0ZM8 3C6.64209 3 6.47181 3.00575 5.9385 3.03009C5.40631 3.05437 5.04284 3.13891 4.72478 3.2625C4.396 3.39028 4.11716 3.56125 3.83919 3.83922C3.56122 4.11719 3.39025 4.39603 3.26247 4.72481C3.13888 5.04284 3.05437 5.40631 3.03006 5.9385C3.00575 6.47181 3 6.64209 3 8C3 9.35791 3.00575 9.52819 3.03006 10.0615C3.05437 10.5937 3.13888 10.9572 3.26247 11.2752C3.39025 11.604 3.56122 11.8828 3.83919 12.1608C4.11716 12.4388 4.396 12.6098 4.72478 12.7375C5.04284 12.8611 5.40631 12.9456 5.9385 12.9699C6.47181 12.9942 6.64209 13 8 13C9.35791 13 9.52819 12.9942 10.0615 12.9699C10.5937 12.9456 10.9572 12.8611 11.2752 12.7375C11.604 12.6098 11.8828 12.4388 12.1608 12.1608C12.4388 11.8828 12.6098 11.604 12.7375 11.2752C12.8611 10.9572 12.9456 10.5937 12.9699 10.0615C12.9942 9.52819 13 9.35791 13 8C13 6.64209 12.9942 6.47181 12.9699 5.9385C12.9456 5.40631 12.8611 5.04284 12.7375 4.72481C12.6098 4.39603 12.4388 4.11719 12.1608 3.83922C11.8828 3.56125 11.604 3.39028 11.2752 3.2625C10.9572 3.13891 10.5937 3.05437 10.0615 3.03009C9.52819 3.00575 9.35791 3 8 3ZM8 3.90091C9.33506 3.90091 9.49319 3.906 10.0204 3.93006C10.5079 3.95231 10.7727 4.03375 10.9488 4.10222C11.1823 4.19291 11.3488 4.30128 11.5238 4.47625C11.6988 4.65119 11.8071 4.81778 11.8978 5.05116C11.9663 5.22734 12.0477 5.49206 12.0699 5.97956C12.094 6.50681 12.0991 6.66494 12.0991 8C12.0991 9.33506 12.094 9.49319 12.0699 10.0204C12.0477 10.5079 11.9663 10.7727 11.8978 10.9488C11.8071 11.1823 11.6988 11.3488 11.5238 11.5238C11.3488 11.6988 11.1823 11.8071 10.9488 11.8978C10.7727 11.9663 10.5079 12.0477 10.0204 12.0699C9.49328 12.094 9.33516 12.0991 8 12.0991C6.66484 12.0991 6.50675 12.094 5.97956 12.0699C5.49206 12.0477 5.22734 11.9663 5.05116 11.8978C4.81775 11.8071 4.65119 11.6988 4.47622 11.5238C4.30125 11.3488 4.19291 11.1823 4.10222 10.9488C4.03375 10.7727 3.95228 10.5079 3.93003 10.0204C3.90597 9.49319 3.90091 9.33506 3.90091 8C3.90091 6.66494 3.90597 6.50681 3.93003 5.97956C3.95228 5.49206 4.03375 5.22734 4.10222 5.05116C4.19291 4.81778 4.30125 4.65119 4.47622 4.47625C4.65119 4.30128 4.81775 4.19291 5.05116 4.10222C5.22734 4.03375 5.49206 3.95231 5.97956 3.93006C6.50681 3.906 6.66494 3.90091 8 3.90091ZM8 5.43244C6.58197 5.43244 5.43244 6.58197 5.43244 8C5.43244 9.41803 6.58197 10.5676 8 10.5676C9.41803 10.5676 10.5676 9.41803 10.5676 8C10.5676 6.58197 9.41803 5.43244 8 5.43244ZM8 9.66666C7.07953 9.66666 6.33334 8.92047 6.33334 8C6.33334 7.07953 7.07953 6.33334 8 6.33334C8.92047 6.33334 9.66666 7.07953 9.66666 8C9.66666 8.92047 8.92047 9.66666 8 9.66666ZM11.269 5.331C11.269 5.66237 11.0004 5.93097 10.669 5.93097C10.3377 5.93097 10.069 5.66237 10.069 5.331C10.069 4.99962 10.3377 4.731 10.669 4.731C11.0004 4.731 11.269 4.99962 11.269 5.331Z" fill="white"/>
</svg>
